<?xml version="1.0" encoding="UTF-8"?>
<svg id="Calque_1" data-name="Calque 1" xmlns="http://www.w3.org/2000/svg" viewBox="0 0 557.88 547.4">
  <defs>
    <style>
      .cls-1 {
        fill: #9ea4a6;
      }

      .cls-2 {
        fill: #152c3e;
      }

      .cls-3 {
        fill: #1bb0ce;
      }

      .cls-4 {
        fill: #b7c4cc;
      }

      .cls-5 {
        fill: #8ddded;
      }

      .cls-6 {
        fill: #79cde0;
      }

      .cls-7 {
        fill: #b8bfc7;
      }

      .cls-8 {
        fill: #1d232a;
      }

      .cls-9 {
        fill: #122d3e;
      }

      .cls-10 {
        fill: #1cb1cf;
      }

      .cls-11 {
        fill: #353635;
      }

      .cls-12 {
        fill: #7f858a;
      }

      .cls-13 {
        fill: #acb7be;
      }

      .cls-14 {
        fill: #121515;
      }

      .cls-15 {
        fill: #1b2b36;
      }

      .cls-16 {
        fill: #4c5455;
      }

      .cls-17 {
        fill: #112b3c;
      }

      .cls-18 {
        fill: #999ea2;
      }

      .cls-19 {
        fill: #122c3e;
      }

      .cls-20 {
        fill: #2a2a2c;
      }

      .cls-21 {
        fill: #f1f6f8;
      }

      .cls-22 {
        fill: #e8f0f3;
      }

      .cls-23 {
        fill: #1cb0cf;
      }

      .cls-24 {
        fill: #2b2c2e;
      }

      .cls-25 {
        fill: #18191b;
      }

      .cls-26 {
        fill: #768089;
      }

      .cls-27 {
        fill: #c1ced3;
      }

      .cls-28 {
        fill: #232729;
      }

      .cls-29 {
        fill: #282828;
      }

      .cls-30 {
        fill: #1b2b38;
      }

      .cls-31 {
        fill: #bfd0d7;
      }

      .cls-32 {
        fill: #caeff4;
      }

      .cls-33 {
        fill: #131315;
      }

      .cls-34 {
        fill: #c0c5cc;
      }

      .cls-35 {
        fill: #151717;
      }

      .cls-36 {
        fill: #beccd4;
      }

      .cls-37 {
        fill: #112d3f;
      }

      .cls-38 {
        fill: #26323d;
      }

      .cls-39 {
        fill: #3b3f44;
      }

      .cls-40 {
        fill: #91d7e1;
      }

      .cls-41 {
        fill: #343233;
      }

      .cls-42 {
        fill: #50a9b4;
      }

      .cls-43 {
        fill: #1d2428;
      }

      .cls-44 {
        fill: #79c3cd;
      }

      .cls-45 {
        fill: #292c2f;
      }

      .cls-46 {
        fill: #f9fefd;
      }

      .cls-47 {
        fill: #66bac9;
      }

      .cls-48 {
        fill: #9da3a6;
      }

      .cls-49 {
        fill: #2caac4;
      }

      .cls-50 {
        fill: #333233;
      }

      .cls-51 {
        fill: #8dd1db;
      }

      .cls-52 {
        fill: #c4eef3;
      }

      .cls-53 {
        fill: #1b2b37;
      }

      .cls-54 {
        fill: #cff2f6;
      }

      .cls-55 {
        fill: #31a7bc;
      }

      .cls-56 {
        fill: #8a969f;
      }

      .cls-57 {
        fill: #f7fdfe;
      }

      .cls-58 {
        fill: #111215;
      }

      .cls-59 {
        fill: #102d3f;
      }

      .cls-60 {
        fill: #191718;
      }

      .cls-61 {
        fill: #142c3d;
      }

      .cls-62 {
        fill: #0f1110;
      }

      .cls-63 {
        fill: #182c3b;
      }

      .cls-64 {
        fill: #37aec8;
      }

      .cls-65 {
        fill: #2d2e30;
      }

      .cls-66 {
        fill: #84dceb;
      }

      .cls-67 {
        fill: #919db1;
      }

      .cls-68 {
        fill: #6acbde;
      }

      .cls-69 {
        fill: #191a19;
      }

      .cls-70 {
        fill: #9ec6ca;
      }

      .cls-71 {
        fill: #757779;
      }

      .cls-72 {
        fill: #404142;
      }

      .cls-73 {
        fill: #262628;
      }
    </style>
  </defs>
  <path class="cls-37" d="m119.3,286.12c2.88-3.44,3.85-9.01,10.64-9.17-2.01,2.58-3.79,4.51-5.13,6.69-2.45,3.98-1.18,5.98,3.55,6.34,9.42.73,18.51-1.04,27.41-3.7,17.2-5.14,34.31-10.57,51.47-15.85,1.77-.54,3.11-.77,2.98-3.41-.15-2.96,2.38-4.99,4.36-6.98,13.93-14,30.05-25.28,46.24-36.38,59.59-40.84,120.98-78.7,185.69-110.99,8.33-4.16,16.83-7.94,25.6-11.1,4.23-1.52,8.47-2.98,13.11-2.55,2.34.22,4.5.13,5.77-2.6,1.56-3.35,1.96-6.83.94-10.18-.6-1.96-2.96-.92-4.48-.63-12.15,2.3-23.76,6.36-35.18,10.99-22.98,9.32-44.98,20.7-66.99,32.06-1.13.59-2.28,1.15-4,.73,8.12-5.08,16.11-10.36,24.39-15.17,8.62-5.01,17.44-9.67,26.29-14.26,8.71-4.51,17.77-8.29,26.92-11.83,9.14-3.54,18.5-6.44,29.17-9.33-8.82-3.51-16.64-3.64-24.46-1.5-8.06,2.21-15.3,6.44-22.8,10-1.5.71-3.02,1.41-4.6,1.88-1.19.35-2.76,1.08-3.6-.43-.93-1.68.26-2.79,1.6-3.67,4.85-3.21,9.72-6.4,14.55-9.65.93-.62,1.7-1.47,2.54-2.22.47-4.26,4.27-1.65,6.16-2.98,3.62.93,7.24,1.73,11.02,1.76,4.5.03,9,.08,13.48.42,11.89.9,19.13,11.26,16.13,22.86-1.67,6.46-5.28,11.81-9.62,16.71-14.08,15.89-31.55,27.51-49.35,38.63-15.51,9.68-31.36,18.83-46.89,28.48-6.92,4.3-6.88,2.26-2.26,10.25,1.5,2.59,3.04,5.18,4.85,7.55,1.92,2.52,1.83,4.42-.31,6.89-3.97,4.59-4.97,10.05-3.2,15.9,3.15,10.39,11.16,14.75,22.8,11.85,3.37-.84,5.09-.2,7.04,2.45,6.12,8.3,12.37,16.51,18.83,24.56,1.96,2.44,1.84,3.68-.65,5.44-4.61,3.26-8.72,8.97-13.59,9.63-4.91.67-9.67-4.97-14.54-7.77-5.72-3.28-11.29-6.8-16.95-10.24,2.95-3.76,6.04-3.86,10.06-1.9,6.36,3.11,13.02,5.62,19.95,7.74-6.53-5.52-13.12-10.97-19.55-16.6-1.77-1.55-2.69-.83-4.07.35-6.07,5.22-12.7,9.66-20.15,13.97,1.08-4.19,3.83-6.84,5.96-9.8,1.74-2.43,3.78-4.64,5.74-6.91,4.25-4.92,4.17-4.8-.98-9.11-1.93-1.61-3.02-1.59-4.88.14-6.66,6.23-13.68,12.04-21.87,16.46,3.45-7.69,8.81-14.06,13.97-20.59,1.04-1.32,3.75-2.35,2.65-4.17-1.22-2.02-3.5-3.55-5.59-4.86-1.49-.94-2.23.98-3.08,1.81-7.16,6.96-13.85,14.43-22.12,20.16-.79.54-1.59,1.06-2.71,1.34,4.83-9.59,10.25-18.76,17.3-26.92.89-1.03,2.99-1.85,2.13-3.5-.97-1.86-2.94-.84-4.51-.52-9.81,2-19.62,4.01-29.42,6.86,5.26,1.82,10.47,3.79,15.79,5.42,3.03.93,2.96,2.05,1.32,4.39-4.22,6.03-4.08,5.92-11.36,4.05-8.47-2.17-16.54-6.2-25.71-5.37-2.74.25-5.08.83-7.49,2.15-25.06,13.73-49.71,28.24-76.14,39.33-11.21,4.71-22.63,8.78-34.46,11.59-2.97.7-3,1.48-1.63,3.82,3.7,6.31,7.06,12.82,10.83,19.08,1.54,2.56.94,3.35-1.56,4.59-7,3.47-13.24,3.58-19.97-1.25-7.38-5.3-15.04-10.35-23.34-14.25-7,.21-14.04-.08-20.95,1.41-4.84-.2-9.68.08-14.52-.17-5-.82-5.36-4.21-4.57-8.25Z"/>
  <path class="cls-37" d="m320.52,415c-1.53-3.31-1.04-6.55.94-9.38,3.53-5.03,2.11-10.21.04-14.9-1.19-2.7-1.92-4.77-1.27-7.73.98-4.5-4.32-9.15-8.76-7.65-4.14,1.4-8.39,1.27-12.57,1.98-.55.09-.87.82-1.55,0-4.09-4.86-8.53-9.52-8.95-16.39,1.48-3.54-.14-7.34.89-10.92,2.31-3.79,3.91-8.08,7.88-10.69,1.33-.88,1.37-2.42,1.51-3.99.31-3.5,4.86-6.91,8.29-7.53,4.96-.9,9.76-2.47,14.87-2.8,2.61-.17,3.13.56,2.96,2.92-.2,2.82,7.93,9.29,10.52,8.55.16-.05.43-.06.46-.15,2.65-7.22,6.54-1.54,9.58-.66,7.07,2.05,12.13-1.11,11.21-7.5-.18-1.27-.11-1.81-1.97-1.63-7.26.72-7.36.58-9.89-5.99-.65-1.68-1.27-2.83-3.1-2-1.43.64-2.41,1.77-1.03,3.44,1.09,1.32.91,2.61-.73,3.07-2.1.59-1.25-1.46-1.55-2.28-1.8-4.97-5.6-8.3-9.37-11.63-.53-.47-1.49-1.72-2.44-.6-.72.84-.29,1.75.42,2.65,1.55,1.96,3.15,3.81,5.42,4.97.32,1.59-.31,2.26-1.92,1.95-1.97-2.6-4.88-4.12-6.85-6.98-1.79-2.59-4.98,2.03-7.91.96-.21,3.24-4.04,3.92-4.72,7.23-.79,3.85-5.02,5.24-9.09,3.82-4.02-1.41-1.49-4.23-1.77-6.68-.67-5.94,2.16-5.95,6.36-5.06,1.2.25,2.75,1.1,3.47-.68.57-1.41.62-2.92-.57-4.19-1.21-1.29-2.4-2.6-3.79-4.11,5.02-1.68,8.89-4.94,12-9.15,2.01-1.61,2.54-3.64,2.02-6.15-.26-1.27-.16-2.92,1.43-3.33,1.75-.45,2.31,1.03,2.48,2.38.31,2.38,1.04,4.15,3.9,4.13,2.88-.02,5.38-.07,7.03-3.33,3.01-5.97,3.85-6.41,8.18-7.49-7.79.42-9.67-2.04-7.3-10.04-2.54,2.92-5.74,5.08-2.73,9.47,1.19,1.74-3,8.84-5.08,9.45-2.25.65-3.13-.97-3.52-2.56-.66-2.67-2.44-2.71-4.52-2.47-3.02-2.25-4.09-6.96-1.79-9.15,4.5-4.27,8.73-8.55,10.92-14.65,1.07-2.97,6.6-3.39,9.03-1.31,14.03,12.02,24.79,26.54,30.25,44.16,3.16,10.19,6.6,20.61,6.13,31.64-4.75,3.29.57,6.24.29,9.36-.36,3.97-1.29,7.91-1.3,11.87-.01,4.66-2.31,6.93-6.44,7.98-4.8.17-2.5-4.17-3.93-6.14-3.54-4.49-2.88-10.77-6.59-15.21,2.56,6.44,3.01,13.65,7.26,19.47.81,1.52.51,3.27,1.05,4.84,1.71,1.65,3.65.36,5.6.45-.11,8.96-6.37,14.3-11.91,19.92-3.49,3.54-4.78,7.68-3.96,12.24.39,2.16-1.62,2.64-1.59,4.22-6.75,11.43-17.13,18.93-28.06,25.83-.57.36-1.25.37-1.82-.14-.42-1.53-.84-3.06-1.26-4.6-1.02-3.66.4-7.5-.8-11.14Z"/>
  <path class="cls-19" d="m118.63,150.94c9.33,2.34,18.66,4.69,28.03,7.04q-2.63,5.83-8.25,4.12c-24.28-7.44-48.56-14.89-72.88-22.34,4.2-6.86,13.25-10.52,20.97-9.92,6.24.48,12.55.16,18.78,1.16,7.47,1.2,15.06,1.11,22.53,2.66,6.08,1.27,12.42,1.31,18.61,2.11,17.84,2.31,35.67,4.71,53.5,7.12,14.39,1.95,28.76,3.95,43.14,5.97,2.71.38,5.38.97,8.12,1.47-6.69,12.75-3.5,23.4,8.2,27.83,3.75.78,7.51.6,11.27.09,10.89-2.19,20.28-7.71,28.72-14.42,5.77-4.6,11.28-6.55,18.43-4.86,4.98,1.18,10.13,1.61,15.7,2.46-3.19,4.86-7.61,8.06-11.8,11.43-13.89,11.15-28.12,21.81-43.78,30.44-3.09,1.7-5.21,1.39-7.88-.89-12.27-10.49-24.8-20.69-37.07-31.19-3.49-2.99-5.94-2.97-9.28.31-7.84,7.69-16.41,14.53-26.13,19.95,4.57-9.13,11.35-16.68,18.14-24.82-4.75-.85-8.93-1.74-13.14-2.32-4.17-.57-7.86-.15-11.28,3.28-6.35,6.35-13.7,11.57-21.7,16.02,4.1-7.98,9.59-14.98,16.29-22.38-4.1.13-6.99-.75-9.89-1.63-7.7-2.33-14.5-2-20.57,4.66-3.83,4.19-9.18,6.98-14.18,10.09,2.73-6.85,7.64-12.18,12.27-18.59-11.52-2-22.69-3.94-33.86-5.88-3.64.41-6.95-1.08-10.03-1.5,2.69.9,6.12.89,9.03,2.54Z"/>
  <path class="cls-59" d="m235.7,200c-23.17,15.16-45.98,30.08-68.78,45.03-1.8,1.18-3.78,2.28-5.19,3.85-4.51,5.03-9.83,4.97-15.83,3.54-2.99-.71-6.26-.33-9.4-.2-2.37.1-3.41-.68-4.14-3.08-4.78-15.57-9.75-31.08-14.76-46.58-.87-2.68-.84-4.47,1.97-6.06,4.33-2.44,8.52-5.2,12.54-8.13,3.18-2.32,5.66-1.44,8.48.6,12.92,9.37,26.12,18.38,38.8,28.07,5.39,4.12,9.48,4.99,15.63,1.13,11.1-6.97,22.94-12.75,34.39-19.17,2.33-1.3,4.18-1.66,6.29.99Z"/>
  <path class="cls-37" d="m164.52,324.12c.61-3.02,1.22-6.03,1.83-9.05.08-.15.18-.29.22-.44,3.01-9.66,3.27-10.02,11.79-3.73,8.02,5.92,15.93,8.56,25.1,3.05.43-.26,1.27-.47,1.34-.24.82,2.62,1.39.95,2.41.06,2.55-2.21,4.61.75,5.16,1.82,1.31,2.58,2.25.92,3.36.42-2.07-1.78-4.66-3.08-5.57-5.98,1.67-2.21,1.09-4.31-.17-6.49-2.82-4.89-5.37-9.95-8.39-14.71-2.25-3.54-.74-4.2,2.95-4.18-2.76,6.84,3.36,7.77,7.01,9.95,1.95,1.16,3.74,1.4,3.15,4.25-.26,1.25.12,2.94,1.88,2.86,1.3-.06,1.35-1.54,1.76-2.64,2.03-5.34,3.49-10.78,4.04-16.48.25-2.64,2.45-2.72,4.39-2.9,2.08-.19,3.87,1.35,3.94,2.79.1,1.87.11,3.42,1.99,3.91,2.16.57,2.02-2.13,3.48-2.94,2.61,4.23,1.83,10.55,7.83,12.78.92.34-.02,1.39-.69,1.83-2.79,1.87-4.95,4.98-9.07,4.13-1.95-.4-3.56.54-4.62,2.31,1.29,1.41,2.21-1.36,3.78.21-.21,1.67-2.08,4.06.16,6.16-.08,2.74-2.41,2.54-4.11,3.17-4.81.28-6.04,5.09-9.28,7.36-.64.45-1.14,1.09-1.71,1.64-2.11,1.12-3.07,2.73-2.21,5.13-.3.58-.48,1.29-.92,1.73-4.08,4.18-9.49,7.77-5.34,15.21-4.15-1.01-1.36-5.1-4.77-6.34-8.7-3.19-18.67,3.6-17.99,12.74.17,2.28,1.22,4.3,3.44,5.01,1.97.63,4.03.05,5.13-1.94.85-1.55,1.96-3.48,3.58-2.48,1.57.96-.18,2.81-.66,4.24-.37,1.09-.69,2.19-1.17,3.73,4.98-.87,7.47.53,5.87,5.85-.42,1.38,1,2.33,1.88,3.3.15,1.05-.56,1.24-1.34,1.34-1.61-.14-2.83-.96-3.67-2.28-2.83-4.43-7.27-5.95-12.08-7.06-5.56-1.29-10.47-2.78-12.26-9.78-.95-3.69-3.87-7.55-7.28-10.35-7.01-5.75-8.18-10.69-4.18-16.99Z"/>
  <path class="cls-37" d="m252.46,416.01c-2.79,1.03-5.37,1.66-5.01,5.97.27,3.25-6.18,7.32-9.63,6.5,2.66,3.23,2.81,5.45-1.92,4.81-2.21-.3-.21,3.01-2.63,2.58-.77-.14.46,4.1-2.68,2.34-2.95-1.65-7.78-1.11-7.92-6.2-.2-6.74-1.43-13.4-1.2-20.19.06-1.79.97-4.05-1.02-5.58-10.19-3.05-17.18-17.87-12.67-27.19,1.13-2.33,1.23-4.81,1.99-7.17.42-.71.93-1.24,1.85-.93,1.94-.98,2.19-3.88,4.73-4.19.71-.14,1.34.08,1.69.69.51.88.91,2.48,1.08-.12.04-.64.89-.88,1.57-.99,2.23,1.12,4.51,2.18,7.09,1.68,1.73-.33,2.61.67,3.8,1.64,2.23,1.82,4.14,4.25,7.52,4.31,2.81.05,5.06,1.82,5.3,4.43.6,6.47,6.53,6.22,10.23,8.72.9.61,2.25.5,3.33.88,7.14,2.56,8.18,6.23,3.29,11.84-1.74,1.99-3.14,3.78-2.81,6.85.47,4.4-1.81,7.61-5.98,9.33Z"/>
  <path class="cls-10" d="m86.65,249.91c2.24.09,4.49.18,6.73.27,3.63,1.25,7.51-.47,11.12.95.28.13.57.15.86.06,3.96,1.26,8.17-.53,12.11.97h-.02c3.92,1.33,8.11-.52,12.02.99h-.01c4.28,1.29,8.76-.39,13.05.89.95.05,1.9.1,2.84.14,3.27,1.24,6.85-.56,10.08,1.05.68,1.45,2.58.21,3.52,1.84-8.08,4.56-15.25,10.45-22.91,15.65-2.76,1.87-5.7,1.95-8.59,1.18-20.99-5.6-41.94-11.34-62.9-17.05-.28-.08-.5-.38-1.12-.87,3.13-3.07,6.85-4.84,10.88-6.12,4.12-.41,8.23-.49,12.34.04Z"/>
  <path class="cls-9" d="m299.5,153.88c.73.3,1.82.59.77,1.59-8.72,8.2-17.6,16.26-29.59,19.38-5.28,1.38-10.27.59-13.91-4.08-3.9-5-5.31-10.61-1.99-16.22,6.31-10.68,15.97-18.01,26.22-24.59.31-.2.96.12,1.45.2,1.73,1.66,1.38,4.03,1.95,6.06,2.3,8.29,8.16,13.42,15.11,17.67Z"/>
  <path class="cls-17" d="m435.57,212.07c-7.24,5.87-14.4,11.92-23.39,14.97-10.67,3.61-18.94-2.31-17.97-12.63.28-2.96,1.61-5.46,3.52-7.56,6.53-7.17,13.81-13.41,22.63-17.66,1.29,1.09,1.13,2.67,1.43,4.12,1.43,6.98,4.56,12.8,11.25,16.14,1.11.56,2.67.81,2.53,2.63Z"/>
  <path class="cls-8" d="m457.43,70.24c-1.82,1.48-4.8.55-6.16,2.98-8.86-1.13-16.58,2.48-24.43,5.73-24.27,10.05-45.96,24.63-67.95,38.68-14,8.95-27.98,17.94-41.98,26.89-1.29.82-3.03,2.81-4.2,1.04-1.69-2.54,1.5-2.57,2.75-3.44,22.45-15.5,45.25-30.45,68.56-44.61,12.65-7.68,25.5-14.99,38.92-21.26,10.96-5.12,22.08-9.16,34.47-6.01Z"/>
  <path class="cls-61" d="m283.52,258.03c-.84,3.24-3.96,4.17-6.3,4.52-5.44.82-7.43,6.35-12.47,8.08-2.41.83-3.03,6.85-4.42,10.42-6.95-.43-8.1-6.17-9.87-11.12-.76-2.11.07-4.08,2.47-5.3,9.17-4.67,18.31-9.39,27.33-14.34,3.26-1.79,4.25-.99,3.82,2.37-.23,1.82,1.49,3.88-.63,5.47-.71-.7-1.6-1.03-2.54-1.26.84.45,1.82.61,2.62,1.17Z"/>
  <path class="cls-2" d="m258.79,208.35c-14.81-7.71-29.61-15.43-44.97-23.43,3-2.61,5.47-5.22,8.39-7.16,2.27-1.51,5.01-.32,6.77,1.28,10.33,9.34,20.49,18.88,30.7,28.35-.29.32-.59.64-.88.97Z"/>
  <path class="cls-49" d="m284.52,130.13c.36-5.31,5.5-8.61,10.95-7.04,7.67,2.22,15.17,12.31,15.32,20.36.07,3.72-1.79,6.25-4.38,8.5-12.15,2.62-25.17-10.36-21.89-21.82Z"/>
  <path class="cls-55" d="m422.43,189.1c1.98-4.63,5.27-6.32,9.63-4.94,6.29,1.98,12.79,11.56,12.44,18.23-.14,2.65-1.27,4.72-3.2,6.45-5.3,2.15-10.25,1.36-13.78-3.06-3.79-4.75-7.53-9.86-5.1-16.67Z"/>
  <path class="cls-30" d="m186.69,176.76c6.83-7.38,8.39-7.71,16.93-4.7,2.15.76,1.91,1.26.87,3.01-2.76,4.67-6.09,6.48-11.29,3.77-1.88-.98-4.09-1.33-6.51-2.08Z"/>
  <path class="cls-63" d="m156.98,167.73c2.83-2.03,4.49-5.33,7.5-5.16,3.88.22,7.69,1.7,11.51,2.71.3.08.65.7.66,1.08.04,2.06-4.84,5.73-6.89,5.15-4.06-1.15-8.09-2.39-12.77-3.78Z"/>
  <path class="cls-54" d="m284.52,130.13c.65,3.55.99,7.14,2.66,10.46,3.99,7.96,9.77,12.74,19.23,11.36-1.79,2.5-4.97,0-6.91,1.92-8.89-1.02-17.44-13.64-17.06-23.73.69,0,1.39-.01,2.08-.02Z"/>
  <path class="cls-52" d="m422.43,189.1c.23,4.16.8,8.21,2.88,11.96,3.87,6.96,7.92,8.98,15.99,7.77-1.21,2.33-4.7.62-5.74,3.24-7.11-3.09-12.06-8.01-14.44-15.65-.78-2.51-.15-4.88-.77-7.24.69-.03,1.38-.06,2.08-.09Z"/>
  <path class="cls-27" d="m210.17,310.04c3.17.89,3.91,6.18,8.55,4.9-2.72,2.18-5.58,4.09-9.25,5.42.22-2.65,2.72-1.9,3.26-3.84-3.2,1.11-2.82-1.78-3.48-3.3-3.24,1.16-1.91,4.96-4.04,6.34-3.4-1.17,2.76-4.76-1.76-5.62,2.23-1.3,4.47-2.61,6.7-3.91Z"/>
  <path class="cls-53" d="m357.93,240.37c1.9-2.1,3.59-3.92,5.21-5.8,2.17-2.52,3.98-.39,5.59.62,2.23,1.41-.24,2.42-.7,3.59-2.47,6.25-6.28,3.54-10.1,1.59Z"/>
  <path class="cls-15" d="m374.27,246.54c3.32-.98,4.61-6.48,9.23-3.41.99.66,3.79.7,2.41,2.71-1.19,1.74-1.83,5.25-5.26,4.03-2.11-.76-4.47-1.26-6.38-3.32Z"/>
  <path class="cls-43" d="m305.2,297.08c.71-2.66.54-3.93-.73-7.32-.69-1.84-1.56-3.75.61-5.88,2.68,4.18,4.25,8.83,7.06,12.8.94,1.33-1.39,2.9-3.51,2.67-1.89.38-2.32-1.46-3.43-2.26Z"/>
  <path class="cls-38" d="m290.02,267.64c1.99-.77,2.62.81,3.2,1.73.66,1.04-.65,1.69-1.37,2.17-.93.63-2.02,1.09-3.1,1.4-1.94.55-3.76.78-4.76-1.72-1.44-3.6,2.07-1.81,3.04-2.78.68-.68,2.13-.59,3-.79Z"/>
  <path class="cls-39" d="m233.21,276.54c.7.64,1.39,1.28,2.55,2.36-1.87.11-3.26.33-4.62.22-1.52-.13-2.77-1.87-2.28-2.61,1.36-2.04,3.96-2.58,6.2-3.38.43-.15,1.82.83,1.83,1.3.03,2.63-2.75.8-3.68,2.13Z"/>
  <path class="cls-45" d="m299.18,298.14c.07-2.9-.43-5.71,2.73-7.08.29-.12,1.42.8,1.37.94-.82,2.18.11,5.42-4.1,6.14Z"/>
  <path class="cls-28" d="m240.47,306.1c.56-4,3.28-3.11,5.37-2.84.59.08,1.27,1.74,1.38,2.74.12,1.01-.84,1.28-1.67.75-1.48-.96-3.16-.5-5.08-.64Z"/>
  <path class="cls-67" d="m118.63,150.94c-3.67-.05-6.99-1.53-10.42-2.67,3.91-.24,7.73.24,11.42,1.63-.33.35-.67.69-1,1.04Z"/>
  <path class="cls-1" d="m330.41,320.12c1.16-.14,1.56-1.02,1.92-1.95,1.32,2.73-.93,7.43-3.47,7.16-.53-.06-1.2-.6-1.46-1.1-.45-.88.37-1.12,1-1.1,2.35.08,2.09-1.51,2.01-3.01Z"/>
  <path class="cls-41" d="m224.38,217.28c-.3,1.42-.65,3.18-2.57,3.58-.8.17-1.52-.7-1.38-1.66.25-1.67.77-3.37,2.61-3.82.74-.18,1.44.67,1.33,1.9Z"/>
  <path class="cls-50" d="m360.33,126.58c-.62,1.34-.69,3.33-2.87,3.34-.98,0-1.3-1.01-1.08-1.85.4-1.55.72-3.38,2.81-3.44.9-.02,1.26.91,1.14,1.95Z"/>
  <path class="cls-73" d="m240.61,207.08c-.27,1.32-.41,2.87-2.31,3.05-1.01.1-1.96-.07-1.86-1.5.13-1.9,1.47-2.84,2.99-3.3,1.04-.31,1.06.87,1.18,1.76Z"/>
  <path class="cls-11" d="m230,215.88c-.84-.27-1.6-.74-1.41-1.71.31-1.61.71-3.38,2.6-3.81.88-.2,1.46.69,1.37,1.62-.16,1.73-.86,3.16-2.56,3.9Z"/>
  <path class="cls-20" d="m216.28,222.44c-.62,1.48-.78,3.41-2.9,3.49-1.11.04-1.12-1.12-1-1.86.25-1.63.73-3.33,2.73-3.48.89-.07,1.16.98,1.18,1.85Z"/>
  <path class="cls-65" d="m376.62,116.3c-.39,1.58-.9,3.24-2.79,3.47-.81.1-1.33-.99-1.11-1.84.4-1.55.69-3.38,2.78-3.5,1.09-.06.97,1.06,1.12,1.87Z"/>
  <path class="cls-69" d="m384.03,108.97c1,2.32.83,4.08-1.31,5.09-.66.31-2.1.56-2.27-.92-.31-2.57,1.86-2.99,3.58-4.17Z"/>
  <path class="cls-62" d="m315.42,153.72c.11-1.83,1.22-3.03,2.79-3.62.98-.37,1.41.57,1.3,1.47-.22,1.68-.69,3.27-2.67,3.62-1.02.18-1.44-.48-1.42-1.47Z"/>
  <path class="cls-29" d="m409.08,96.04c-.39,1.44-.73,3-2.54,3.24-1.07.14-1.38-.73-1.23-1.63.27-1.66.78-3.34,2.76-3.5.97-.07,1.11,1,1,1.88Z"/>
  <path class="cls-24" d="m364.44,123.22c.45-1.49.75-3.28,2.64-3.71.75-.17,1.54.59,1.39,1.61-.25,1.69-.86,3.3-2.61,3.83-.63.19-1.45-.65-1.42-1.73Z"/>
  <path class="cls-16" d="m229.47,314.07c.39-2.33,3.06-1.7,4.11-3.17.79.03,2.25.39,2.14.49-1.77,1.54-2.86,4.98-6.26,2.68Z"/>
  <path class="cls-14" d="m327.63,146.92c-.3,1.41-.8,2.96-2.39,3.2-1.23.19-1.34-1.07-1.16-2.08.27-1.47.68-2.93,2.51-2.98,1.13-.03.95,1.03,1.03,1.86Z"/>
  <path class="cls-60" d="m351.1,129.31c.54,2.47,1.09,4.45-1.21,5.68-.3.16-1.16-.03-1.25-.25-.81-2.19.09-3.75,2.46-5.43Z"/>
  <path class="cls-35" d="m392.17,104.16c1.11,2.1.62,3.79-1.21,5.06-.81.57-1.61.26-1.73-.78-.25-2.19.6-3.72,2.94-4.28Z"/>
  <path class="cls-58" d="m335.65,142.12c-.45,1.28-.7,2.99-2.63,2.91-1.01-.04-.97-1.15-.82-1.95.28-1.49.66-3.08,2.59-3,1.04.04.93,1.12.86,2.05Z"/>
  <path class="cls-33" d="m341.36,140.1c-1.19-.12-1.18-1.06-1.09-1.81.18-1.49.54-3.05,2.37-3.28,1.21-.15,1.16.92,1.09,1.71-.14,1.55-.66,2.89-2.37,3.38Z"/>
  <path class="cls-32" d="m142.5,254.05c-4.36-.11-8.77.52-13.05-.9,4.36.1,8.81-1.04,13.05.9Z"/>
  <path class="cls-13" d="m363.43,358.1c1.56,1.3.84,3.07.92,4.65.07,1.47.32,2.63,2.17,2.51-.8.94-2.32,1.34-2.21,2.96l-1.61-4.3c-.03-1.97-1.1-4.08.73-5.82Z"/>
  <path class="cls-25" d="m400.38,99.04c.77,2.53.41,4.17-1.5,5.19-.65.34-1.39.12-1.52-.67-.38-2.28.55-3.78,3.02-4.52Z"/>
  <path class="cls-71" d="m211.61,370.94c-.41.42-.82.83-1.24,1.25-2.1-.41-4.97,1.49-6.05-2,.33-.31.66-.63,1-.94,2.16.34,4.9-1.49,6.29,1.7Z"/>
  <path class="cls-32" d="m129.47,253.15c-4.02-.15-8.11.48-12.02-1,4.02.19,8.16-1.14,12.02,1Z"/>
  <path class="cls-32" d="m117.47,252.16c-4.06-.08-8.15.38-12.11-.97,4.05.14,8.22-1.17,12.11.97Z"/>
  <path class="cls-44" d="m86.65,249.91c-4.11-.01-8.23-.03-12.34-.04,4.12-1.49,8.23-1.28,12.34.04Z"/>
  <path class="cls-48" d="m220.68,366.33c-1.59.62-.43,2.75-1.78,3.45-1.76-.34-.52-3.02-2.56-3.03,1.25-2.19,2.79-1.38,4.34-.42Z"/>
  <path class="cls-34" d="m289.29,350.03c-.24,3.64,1.23,7.43-.89,10.92.62-3.61-.81-7.39.89-10.92Z"/>
  <path class="cls-18" d="m320.52,415c1.98,3.59.26,7.45.8,11.14-1.99-3.59-.23-7.45-.8-11.14Z"/>
  <path class="cls-72" d="m208.49,348.68c2.22,1.2,4.43,2.4,7.75,4.19-4.66,1.07-5.89-2.7-7.75-4.19Z"/>
  <path class="cls-12" d="m305.2,297.08c1.97-.51,2.25,1.56,3.43,2.26-1.36.5-2.72,1.01-4.52,1.67.44-1.59.77-2.76,1.09-3.93Z"/>
  <path class="cls-32" d="m104.5,251.13c-3.73-.03-7.51.55-11.12-.95,3.72.14,7.56-1.03,11.12.95Z"/>
  <path class="cls-7" d="m270.66,178.26c-3.77,1.27-7.53,1.39-11.27-.09,3.76.03,7.52.06,11.27.09Z"/>
  <path class="cls-32" d="m155.43,255.24c-3.33-.69-6.85.52-10.08-1.05,3.38.15,6.94-1.39,10.08,1.05Z"/>
  <path class="cls-56" d="m216.27,328.19c-.84-2.39-2.14-4.98,2.21-5.13.64,2.3-2.8,2.85-2.21,5.13Z"/>
  <path class="cls-26" d="m138.67,293.29c-5.11,1.14-10.21,1.57-15.3-.06,5.1.02,10.2.04,15.3.06Z"/>
  <path class="cls-21" d="m357.77,311.87c1.81,1.86,6.14,3.04,4.86,5.66-1.47,3-4.89.46-7.42-.42-1.51-.52-2.84.01-4.26.6-1.45.6-3.15,1.08-4.51-.35-1.42-1.49.06-2.86.52-4.05.66-1.71.49-4.43,3.52-4.31,2.08,1.85,5.45.41,7.29,2.86Z"/>
  <path class="cls-22" d="m363.43,358.1c-.17,1.95.84,4.04-.73,5.82-4.56-4.66-4.37-11.31-7-16.77-.42-.88-.81-1.8-1.02-2.74-.23-1.05-2.12-2.32-.15-3.17,1.6-.7,2.11,1.04,2.83,2.12,3.03,4.51,2.93,10.3,6.07,14.75Z"/>
  <path class="cls-36" d="m357.77,311.87c-2.6-.52-5.69.2-7.29-2.86,2.99,1.01,5.62-.73,8.63-1.28-.49,1.53-.91,2.84-1.33,4.14Z"/>
  <path class="cls-31" d="m350.77,385.94c-.43,2.72-.56,4.24-2.71,3.97-1.43-.18-1.39-1.04-1.15-2.07.28-1.22.21-2.74,2.04-2.78,1.47-.03,1.82.88,1.82.88Z"/>
  <path class="cls-23" d="m224.25,484.2c-30.21-2.34-57.12-13.35-80.61-32.17-33.58-26.89-52.59-62.03-57.28-104.85-.53-10.07-.59-20.13.04-30.2.04-2.3.09-4.6.13-6.9,0,0,0,0,0,0,2.11-8.14,4.33-16.26,6.3-24.43.9-3.73,2.08-4.47,5.57-2.19,7.1,4.62,14.41,8.94,21.83,13.03,3.31,1.82,3.67,3.86,2.88,7.27-9.04,39.42-2.56,76.22,20.57,109.36,24.12,34.55,57.76,53.69,99.77,57.94,8.01.79,16.03.83,24.04-.03,29.05-2.59,54.48-13.72,76.67-32.5,1.77-1.5,3.53-3.01,5.29-4.52.98-.59,1.83-.85,1.9.78-13.52,15.82-30.15,27.49-48.89,36.19-15.48,7.19-31.71,11.9-48.82,13.17-9.8.6-19.59.53-29.39.03Z"/>
  <path class="cls-3" d="m280.51,452.13c9.03-.99,18.02-2.21,26.66-5.24,1.95-.68,3.35.02,3.88,1.93.53,1.9-1.03,2.42-2.37,3.23-2,1.2-4.45,1.44-6.21,3.07-10.48,4.6-21.55,6.84-32.86,8.06-8.75.56-17.5.58-26.25,0-51.54-6.73-87.23-34.15-107.05-82.16-4.47-10.83-6.69-22.26-7.94-33.89-.56-7.7-.59-15.41.02-23.11-.22-6.04,1.9-11.69,2.87-17.53.44-2.63,1.63-2.38,3.37-1.33,7.1,4.28,14.2,8.56,21.32,12.8,1.33.79,2.05,1.89,1.39,3.28-1.51,3.19-.32,6.56-.87,9.79-.77,5.03-.74,10.06-.02,15.08,3.8,42.08,24.44,73.2,61.3,93.55,12.94,7.15,27.01,10.98,41.71,12.45,7.02.75,14.04.71,21.07.02Z"/>
  <path class="cls-64" d="m302.46,455.11c.78-2.46,3.65-1.87,5.06-3.46.79-.89,2.85-.4,2.75-2.26-.09-1.87-1.62-2.22-3.11-2.51,17.44-6.71,33.15-16.11,46.03-29.85,2.61-2.79,5.09-5.7,7.69-8.64-3.67,13.4-37.07,40.05-58.43,46.71Z"/>
  <path class="cls-42" d="m351.35,434.8c-.63-.26-1.27-.52-1.9-.78,4.36-4.97,8.72-9.94,13.08-14.9.92-.26,1.37-.04,1.03,1-3.73,5.17-7.29,10.49-12.2,14.68Z"/>
  <path class="cls-6" d="m86.4,316.98c-.01,10.07-.03,20.13-.04,30.2-1.55-10.07-1.54-20.13.04-30.2Z"/>
  <path class="cls-47" d="m224.25,484.2c9.8,0,19.59-.02,29.39-.03-9.8,1.58-19.59,1.62-29.39.03Z"/>
  <path class="cls-68" d="m243.35,463.17c8.75,0,17.5,0,26.25,0-8.75,1.52-17.5,1.48-26.25,0Z"/>
  <path class="cls-51" d="m267.48,471.04c-8.01,1.59-16.02,1.72-24.04.03,8.01,0,16.02-.02,24.04-.03Z"/>
  <path class="cls-5" d="m128.38,324.02c0,7.7-.01,15.41-.02,23.11-1.41-7.7-1.47-15.41.02-23.11Z"/>
  <path class="cls-66" d="m280.51,452.13c-7.02,1.49-14.05,1.43-21.07-.02,7.02,0,14.04.01,21.07.02Z"/>
  <path class="cls-70" d="m363.55,420.12c-.34-.33-.69-.67-1.03-1,2.99-4.01,5.26-8.56,8.87-12.13l.12.1c-1.57,5-4.87,8.94-7.95,13.02Z"/>
  <path class="cls-40" d="m156.43,346.11c-1.41-5.03-1.43-10.06.02-15.08,0,5.03-.01,10.06-.02,15.08Z"/>
  <path class="cls-70" d="m371.39,406.99c.37-2.48,1.95-4.26,3.45-6.1-.78,2.25-1.1,4.75-3.34,6.2,0,0-.12-.1-.12-.1Z"/>
  <path class="cls-4" d="m283.52,258.03c-2.02.13-4.07.48-6.77-.96,3.13-1.22,5.37-2.73,6.69,1.05,0,0,.08-.09.08-.09Z"/>
  <path class="cls-46" d="m289.35,131.35c.07-4.9,3.16-7.07,7.57-4.87,6.74,3.37,10.22,9.31,11.21,16.56.56,4.12-2.82,6.52-6.67,5.27-5.66-1.84-12.19-10.98-12.1-16.96Z"/>
  <path class="cls-57" d="m442.18,200.52c.02,5.19-2.68,6.96-6.59,5.29-4.47-1.91-9.27-9.53-9.11-14.48.15-4.59,3.01-6.4,6.93-4.07,5.34,3.16,7.84,8.25,8.76,13.25Z"/>
</svg>